#!OML:ASF X:\für Bonn\!DataBase\2005_08_10_Bjorn_Final\c3d\bjorn.ASF
:FULLY-SPECIFIED
:DEGREES
32
root -35.0279 18.7533 3.79524 -166.771 -241.851 -172.872
lowerback -3.60826 -2.03624 -10.4095
upperback 7.81975 -1.0957 -5.17007
thorax 10.646 -0.998124 0.0896786
lowerneck 0.268781 -1.8911 -0.383174
upperneck 11.6802 -3.21872 8.60635
head 3.97421 -1.20207 2.87373
rclavicle 1.63003e-013 6.83819e-014
rhumerus -41.4356 -7.59648 -97.1437
rradius 39.638
rwrist -10.2305
rhand -11.9883 12.2497
rfingers 7.12502
rthumb 14.0683 -17.2541
lclavicle 1.63003e-013 6.83819e-014
lhumerus -23.3509 -15.7101 87.3046
lradius 56.435
lwrist -7.16
lhand -28.8971 -14.3047
lfingers 7.12502
lthumb -2.25229 15.6632
rfemur -24.4493 -8.73923 14.2731
rtibia 55.8208
rfoot -19.7972 16.1047
rtoes -11.2833
lfemur -9.36353 16.0588 -24.0176
ltibia 33.3613
lfoot -22.9362 -9.75126
ltoes -7.13092
33
root -34.9819 18.7478 3.82122 -166.954 -241.413 -173.061
lowerback -3.5147 -2.08993 -10.2828
upperback 7.80382 -1.19642 -5.18485
thorax 10.5719 -1.03474 -0.00398785
lowerneck 0.215123 -1.81715 -0.287768
upperneck 11.69 -3.12053 8.5464
head 3.97833 -1.15122 2.83826
rclavicle 7.15625e-014 -1.11319e-014
rhumerus -41.9504 -7.39587 -97.2444
rradius 40.1154
rwrist -10.589
rhand -12.2028 12.3741
rfingers 7.12502
rthumb 13.8616 -17.144
lclavicle 7.15625e-014 -1.11319e-014
lhumerus -23.4536 -16.1475 87.1207
lradius 57.8879
lwrist -6.81699
lhand -28.9036 -14.5843
lfingers 7.12502
lthumb -2.25858 15.3834
rfemur -24.8739 -8.73232 14.3335
rtibia 56.1907
rfoot -19.7858 16.1385
rtoes -11.4947
lfemur -9.09919 16.2154 -23.9356
ltibia 33.2941
lfoot -22.8717 -9.90653
ltoes -6.36619
34
root -34.9343 18.7446 3.84738 -167.076 -240.958 -173.203
lowerback -3.45045 -2.13186 -10.1593
upperback 7.78844 -1.27544 -5.20769
thorax 10.5143 -1.06123 -0.102704
lowerneck 0.0923994 -1.7551 -0.2342
upperneck 11.7804 -3.04933 8.5419
head 4.02917 -1.10901 2.831
rclavicle -7.95139e-016 1.43125e-014
rhumerus -42.4572 -7.20084 -97.346
rradius 40.6142
rwrist -11.0349
rhand -12.2555 12.7878
rfingers 7.12502
rthumb 13.8108 -16.7338
lclavicle -7.95139e-016 1.43125e-014
lhumerus -23.5569 -16.5966 86.9272
lradius 59.3235
lwrist -6.58305
lhand -28.968 -14.8355
lfingers 7.12502
lthumb -2.32077 15.1316
rfemur -25.3241 -8.70577 14.3617
rtibia 56.5343
rfoot -19.7603 16.165
rtoes -11.6246
lfemur -8.83763 16.2813 -23.9058
ltibia 33.1915
lfoot -22.8103 -9.91369
ltoes -5.82303
35
root -34.8862 18.7402 3.8745 -167.256 -240.512 -173.389
lowerback -3.3605 -2.17931 -10.0053
upperback 7.78282 -1.36774 -5.22408
thorax 10.4513 -1.09234 -0.212054
lowerneck -0.113126 -1.67319 -0.168501
upperneck 11.9304 -2.95602 8.51161
head 4.11546 -1.05278 2.81465
rclavicle -2.94201e-014 -1.59028e-015
rhumerus -42.9327 -6.93476 -97.4847
rradius 41.071
rwrist -11.4851
rhand -12.3761 13.2164
rfingers 7.12502
rthumb 13.6945 -16.313
lclavicle -2.94201e-014 -1.59028e-015
lhumerus -23.6346 -16.9699 86.7314
lradius 60.7083
lwrist -6.4665
lhand -29.0673 -15.1377
lfingers 7.12502
lthumb -2.41675 14.8284
rfemur -25.7387 -8.67689 14.4198
rtibia 56.8445
rfoot -19.7509 16.1747
rtoes -11.8624
lfemur -8.53733 16.1999 -23.8564
ltibia 33.0642
lfoot -22.7243 -9.82964
ltoes -5.19206
36
root -34.8362 18.7374 3.90247 -167.429 -240.032 -173.576
lowerback -3.2665 -2.20662 -9.86505
upperback 7.75287 -1.4371 -5.22522
thorax 10.3568 -1.11358 -0.292532
lowerneck -0.270011 -1.59764 -0.147661
upperneck 12.098 -2.87247 8.51864
head 4.20181 -1.00207 2.82013
rclavicle 5.08889e-014 -6.36111e-015
rhumerus -43.4694 -6.59769 -97.6319
rradius 41.6032
rwrist -12.0411
rhand -12.5723 13.5519
rfingers 7.12502
rthumb 13.5055 -15.9901
lclavicle 5.08889e-014 -6.36111e-015
lhumerus -23.7893 -17.3449 86.5732
lradius 62.1034
lwrist -6.32822
lhand -29.2116 -15.4368
lfingers 7.12502
lthumb -2.55603 14.5276
rfemur -26.1588 -8.62939 14.4717
rtibia 57.1271
rfoot -19.719 16.1948
rtoes -12.0178
lfemur -8.2278 16.0088 -23.8371
ltibia 32.9091
lfoot -22.6527 -9.58284
ltoes -4.78546
37
root -34.7849 18.7353 3.93148 -167.557 -239.555 -173.715
lowerback -3.19001 -2.23037 -9.73392
upperback 7.74813 -1.49347 -5.23567
thorax 10.3012 -1.12991 -0.37858
lowerneck -0.560203 -1.51892 -0.180756
upperneck 12.6618 -2.84599 8.7904
head 3.98967 -0.933461 2.61951
rclavicle -1.61413e-013 -3.65764e-014
rhumerus -43.91 -6.308 -97.7663
rradius 42.0618
rwrist -12.4455
rhand -12.7194 13.8761
rfingers 7.12502
rthumb 13.3637 -15.6753
lclavicle -1.61413e-013 -3.65764e-014
lhumerus -23.869 -17.7381 86.396
lradius 63.4682
lwrist -6.11187
lhand -29.3458 -15.6846
lfingers 7.12502
lthumb -2.68566 14.2782
rfemur -26.5781 -8.61238 14.5001
rtibia 57.3824
rfoot -19.7218 16.2507
rtoes -12.2817
lfemur -7.9022 15.7517 -23.8481
ltibia 32.7377
lfoot -22.6002 -9.26906
ltoes -4.79037
38
root -34.7331 18.7341 3.96246 -167.729 -239.083 -173.918
lowerback -3.11651 -2.24322 -9.56163
upperback 7.731 -1.53964 -5.24844
thorax 10.2297 -1.13778 -0.487379
lowerneck -0.74001 -1.44457 -0.177973
upperneck 12.8217 -2.77168 8.86844
head 4.0657 -0.883478 2.64561
rclavicle 7.95139e-016 6.20208e-014
rhumerus -44.3759 -6.10212 -97.8933
rradius 42.5425
rwrist -12.676
rhand -12.8972 14.1411
rfingers 7.12502
rthumb 13.1923 -15.4215
lclavicle 7.95139e-016 6.20208e-014
lhumerus -23.9915 -18.1059 86.2122
lradius 64.8238
lwrist -5.9062
lhand -29.4489 -15.9653
lfingers 7.12502
lthumb -2.78526 13.9963
rfemur -27.007 -8.58599 14.5862
rtibia 57.6133
rfoot -19.7147 16.2891
rtoes -12.4874
lfemur -7.58262 15.5095 -23.8162
ltibia 32.5505
lfoot -22.5634 -8.86738
ltoes -5.48039
39
root -34.6796 18.732 3.99493 -167.886 -238.589 -174.08
lowerback -3.02673 -2.24776 -9.43661
upperback 7.71629 -1.57506 -5.23477
thorax 10.1537 -1.14564 -0.539953
lowerneck -0.86917 -1.36517 -0.226069
upperneck 12.8925 -2.67962 8.92987
head 4.10555 -0.832619 2.67575
rclavicle -1.03368e-013 -2.22639e-014
rhumerus -44.8418 -5.8144 -97.9761
rradius 43.0358
rwrist -12.9635
rhand -13.0403 14.3048
rfingers 7.12502
rthumb 13.0543 -15.2667
lclavicle -1.03368e-013 -2.22639e-014
lhumerus -24.116 -18.4645 86.0858
lradius 66.1437
lwrist -5.65878
lhand -29.6397 -16.1802
lfingers 7.12502
lthumb -2.96948 13.7789
rfemur -27.404 -8.55627 14.6356
rtibia 57.8222
rfoot -19.6922 16.3709
rtoes -12.8329
lfemur -7.22816 15.2333 -23.8089
ltibia 32.3542
lfoot -22.5278 -8.4737
ltoes -6.12665
